<!DOCTYPE svg PUBLIC "-//W3C//DTD SVG 1.1//EN" "http://www.w3.org/Graphics/SVG/1.1/DTD/svg11.dtd">
<!-- Uploaded to: SVG Repo, www.svgrepo.com, Transformed by: SVG Repo Mixer Tools -->
<svg fill="#00ffbf" height="100px" width="100px" version="1.1" id="Layer_1" xmlns="http://www.w3.org/2000/svg" xmlns:xlink="http://www.w3.org/1999/xlink" viewBox="-50.18 -50.18 602.13 602.13" xml:space="preserve" stroke="#00ffbf">
<g id="SVGRepo_bgCarrier" stroke-width="0">
<rect x="-50.18" y="-50.18" width="602.13" height="602.13" rx="301.065" fill="#000000" strokewidth="0"/>
</g>
<g id="SVGRepo_tracerCarrier" stroke-linecap="round" stroke-linejoin="round"/>
<g id="SVGRepo_iconCarrier"> <g> <g> <path d="M419.019,370.57l-48-64h32c8.533,0,16-4.267,19.2-11.733c3.2-7.467,2.133-16-3.2-22.4L286.753,116.703 c-8.533-9.6-24.533-9.6-32,0l-23.467,27.733c-5.333-4.267-10.667-7.467-14.933-11.733c-27.733-26.667-36.267-68.267-22.4-104.533 c3.2-7.467,1.067-17.067-4.267-22.4c-6.4-5.333-14.933-7.467-22.4-4.267c-18.133,7.467-35.2,18.133-49.067,32 c-54.4,54.4-54.4,144,0,198.4c6.4,7.467,13.867,13.867,22.4,19.2l-18.133,21.333c-5.333,6.4-6.4,14.933-3.2,22.4 c3.2,7.467,10.667,11.733,19.2,11.733h32l-49.067,66.133c-5.333,5.333-5.333,13.867-2.133,21.333 c4.267,7.467,11.733,11.733,19.2,11.733h110.933v74.667c0,11.733,9.6,21.333,21.333,21.333s21.333-9.6,21.333-21.333v-74.667h112 c10.667,0,20.267-9.6,20.267-20.267C424.352,379.104,422.219,374.837,419.019,370.57z M168.352,219.104 c-8.533-4.267-14.933-9.6-21.333-16c-18.133-18.133-28.8-42.667-28.8-69.333c0-25.6,9.6-50.133,27.733-68.267 c0,36.267,13.867,71.467,40.533,98.133c5.333,4.267,10.667,9.6,17.067,13.867L168.352,219.104z M180.086,363.104l50.133-66.133 c5.333-5.333,5.333-13.867,2.133-21.333c-4.267-7.467-11.733-11.733-19.2-11.733h-28.8l87.467-102.4l87.467,102.4h-28.8 c-8.533,0-16,4.267-19.2,11.733c-3.2,6.4-2.133,14.933,2.133,21.333l49.067,66.133H180.086z"/> </g> </g> </g>
</svg>